<?xml version="1.0" encoding="UTF-8"?>
<!-- Created with Inkscape (http://www.inkscape.org/) -->
<svg width="77.39" height="89.362" version="1.1" viewBox="0 0 77.39 89.362" xmlns="http://www.w3.org/2000/svg" xmlns:cc="http://creativecommons.org/ns#" xmlns:dc="http://purl.org/dc/elements/1.1/" xmlns:rdf="http://www.w3.org/1999/02/22-rdf-syntax-ns#">
 <metadata>
  <rdf:RDF>
   <cc:Work rdf:about="">
    <dc:format>image/svg+xml</dc:format>
    <dc:type rdf:resource="http://purl.org/dc/dcmitype/StillImage"/>
    <dc:title/>
   </cc:Work>
  </rdf:RDF>
 </metadata>
 <path d="m0 22.342v44.68l38.695 22.342v-44.682z" fill="#e44d26" style="paint-order:markers stroke fill"/>
 <path d="m38.695 44.682-38.695-22.34 38.695-22.343 38.695 22.341z" fill="#264de4" style="paint-order:markers stroke fill"/>
 <path d="m38.695 89.364v-44.682l38.695-22.342v44.681z" fill="#f0db4f" style="paint-order:markers stroke fill"/>
 <path d="m19.351 71.046 10.219 2.6257 1.3698-14.551-18.169-9.7371-0.46044-5.3455 7.0395 3.7724v-2.2e-4l12.051 6.4579 0.44952-4.737-25-13.397 1.3597 15.772 17.283 9.2621-0.57116 6.1744-5.5703-1.4939-5.571-4.4769-0.35079-4.1681-5.0002-2.6797 0.7018 8.1941z" fill="#fff" stroke-width=".75947"/>
 <path d="m42.069 20.165 5.9448 3.4323 4.9965-2.4173-6.3506-3.6665 2.01e-4 -1.15e-4 -10.852-6.2653 4.0775-2.822 5.96e-4 -1.32e-4 11.257 6.4993-1.98e-4 1.16e-4 11.257 6.4989 1e-6 2.31e-4 -14.999 7.2351-0.0012-0.0061-9.8935 4.7724-11.77-3.8311-6.6362-6.7962 6.4082-4.4298 4.5028 2.5998-3.2684 2.2518 3.6742 3.6721 6.3593 2.1209 6.3504-3.0725-15.564-8.986 4.069-2.816 2e-4 2e-4" fill="#fff" stroke-width=".10611"/>
 <path d="m66.501 63.617c0.60223 0.71271 1.3857 1.0395 2.7715 0.23828 1.1641-0.67312 1.9078-1.7308 1.9078-2.5983 0-1.0394-0.76407-0.96581-2.0454-0.82964l-0.7024 0.08099c-2.0274 0.24035-3.3742-0.14836-3.3742-2.6164 0-2.2735 1.6055-4.9325 4.1146-6.3832 1.7863-1.0329 3.0705-1.1046 3.9959 0.11656l-2.1878 2.7806c-0.48168-0.65338-1.0014-0.72004-1.8081-0.25356-0.8229 0.47581-1.3444 1.3406-1.3444 2.0764 0 0.90938 0.52202 0.97568 1.7274 0.84194l0.70236-0.08149c2.3871-0.27577 3.7349 0.07091 3.7349 2.6024 0 2.7292-1.987 5.3732-4.6556 6.9162-2.6092 1.5087-4.2949 1.1418-5.1197-0.13958zm-9.9248 6.0012c0.44135 0.5897 0.84284 1.0718 1.8081 0.51371 0.92306-0.53371 1.5054-1.2601 1.5054-2.7752v-10.307l2.8095-1.6245v10.348c0 3.1388-1.7056 5.5536-4.1952 6.9931-2.2495 1.3006-3.5522 0.79785-4.2147-0.33192z" stroke-width=".049295"/>
</svg>
