<svg xmlns="http://www.w3.org/2000/svg" version="1.1" xmlns:xlink="http://www.w3.org/1999/xlink" xmlns:svgjs="http://svgjs.com/svgjs" width="346.74313" height="346.77255"><svg version="1.1" id="SvgjsSvg1005" x="0px" y="0px" viewBox="0 0 346.74312 346.77254" xml:space="preserve" sodipodi:docname="6.svg" width="346.74313" height="346.77255" inkscape:version="1.1 (c68e22c387, 2021-05-23)" xmlns:inkscape="http://www.inkscape.org/namespaces/inkscape" xmlns:sodipodi="http://sodipodi.sourceforge.net/DTD/sodipodi-0.dtd" xmlns="http://www.w3.org/2000/svg" xmlns:svg="http://www.w3.org/2000/svg"><defs id="SvgjsDefs1004"></defs><sodipodi:namedview id="SvgjsSodipodi:namedview1003" pagecolor="#ffffff" bordercolor="#666666" borderopacity="1.0" inkscape:pageshadow="2" inkscape:pageopacity="0.0" inkscape:pagecheckerboard="0" showgrid="false" inkscape:zoom="1.449926" inkscape:cx="248.28854" inkscape:cy="256.90966" inkscape:window-width="1920" inkscape:window-height="1001" inkscape:window-x="-9" inkscape:window-y="-9" inkscape:window-maximized="1" inkscape:current-layer="Layer_1"></sodipodi:namedview>
<style type="text/css" id="SvgjsStyle1002">
	.st0{fill-rule:evenodd;clip-rule:evenodd;}
	.st1{fill-rule:evenodd;clip-rule:evenodd;fill:#75C5C2;}
</style>








<path id="SvgjsPath1001" style="stroke-width:1.00497" class="st1" d="m 190.27131,0.02054452 c -2.33768,0.1459348 -4.60894,1.00657548 -6.50977,2.36523438 -3.51829,-1.48560318 -7.44473,-1.1029513 -11.11328,-0.5058594 -2.77396,0.1890846 -5.45339,-0.89186518 -8.23125,-0.7167969 -3.50391,0.066824 -7.06792,0.8345702 -10.12031,2.59375 -0.38256,0.2488165 -0.63547,0.873751 -1.17383,0.6230469 -3.22111,-0.4445598 -6.78182,-0.1165237 -9.41016,1.9726562 -0.26846,0.5536812 -1.00885,0.2373913 -1.48046,0.4492188 -3.42188,0.6425483 -6.61279,2.0959196 -9.89985,3.1912181 -1.02803,0.3653374 -1.92449,1.0509474 -2.8994,1.4778184 -4.33042,0.623953 -8.42428,2.347739 -12.16045,4.582035 -5.11624,2.809591 -9.8546,6.275705 -15.07313,8.901253 -2.403595,1.029057 -5.045447,1.724726 -7.004549,3.555738 -1.343082,1.152776 -2.602953,2.576065 -4.407989,2.968213 -4.37301,1.757963 -7.352955,5.578948 -10.486015,8.914353 -1.242316,1.417159 -2.488572,2.977739 -4.317186,3.647523 -5.324832,2.547045 -9.663619,6.791771 -12.970879,11.626553 -1.31193,1.736448 -2.232411,3.772405 -3.866232,5.25043 -2.255847,2.18809 -4.811176,4.109788 -6.614427,6.721738 -1.942795,2.503291 -4.323075,4.604823 -6.650072,6.735981 -4.774763,4.536073 -8.525698,9.998695 -11.994677,15.562236 -3.627574,5.848661 -7.257975,11.695716 -11.00002,17.471646 -2.123129,3.3844 -4.279148,6.81912 -5.464808,10.66452 -0.475154,1.26575 -0.964719,2.60709 -2.05314,3.47878 -1.65173,1.62405 -2.969882,3.6338 -3.484202,5.91335 -1.562134,4.63513 -2.5910536,9.39708 -4.983061,13.68428 -2.0783904,4.42624 -1.8475747,9.47652 -2.5260873,14.14672 -0.7166004,4.88545 -2.1674746,9.64521 -2.6608184,14.56339 -0.2088531,3.93502 0.3946621,7.87227 0.7162026,11.75864 -2.63561807,2.97139 -3.26083357,7.63752 -1.2207032,11.09375 -0.32826337,1.6686 -0.45477837,3.42692 -0.32088007,5.14302 0.13035557,2.36693 0.71906927,4.68403 1.23624217,6.97792 -0.2695945,1.95637 -1.0741938,3.91237 -0.5920702,5.90733 0.4392431,3.50849 1.8417073,6.79909 2.4761488,10.2682 1.0459101,4.50231 2.5594218,8.87947 4.2473451,13.17591 1.1892171,3.42983 1.7335765,7.03467 2.9018125,10.46723 0.928346,2.07048 2.364456,3.89751 3.020692,6.09176 2.019969,5.03682 5.130693,9.52693 7.569772,14.35534 0.99095,1.73631 2.576316,3.03813 3.482789,4.8307 3.293352,5.55305 7.07547,10.89588 11.595336,15.54626 1.043052,0.88565 2.249801,1.5838 3.548828,2.01758 1.17687,2.69466 3.315587,4.78841 4.995432,7.15991 1.35438,1.73318 3.01786,3.36612 5.17449,4.01977 0.999618,0.63632 1.539185,1.76843 2.372325,2.58978 3.662143,4.31274 7.978167,8.34489 13.381532,10.31524 1.596431,0.57886 2.937124,1.61896 4.31657,2.57487 1.096902,0.77248 2.327374,1.36189 3.439591,2.08391 1.55719,1.68436 3.243924,3.26742 5.175529,4.51042 1.410828,0.941 2.696632,2.05418 3.798866,3.34184 1.476804,1.37638 3.250579,2.3781 4.863192,3.57874 3.081634,1.93459 7.192676,2.21381 10.445364,0.5345 1.774267,0.53291 3.349967,1.55886 4.667987,2.84576 3.35252,2.84199 6.68757,5.95738 10.92772,7.40424 2.40035,2.72343 6.24529,4.45225 9.87217,3.49437 1.23132,-0.2969 2.41324,-0.8376 3.40127,-1.635 2.30821,0.24382 4.53898,0.9863 6.59063,2.05181 1.85751,0.73574 3.89084,0.85588 5.84241,1.02424 2.38989,1.39022 5.13199,2.46239 7.94468,2.13143 6.31174,0.0901 12.60766,0.0109 18.82885,1.14094 4.17861,0.49555 8.2715,-0.78073 12.39856,-1.19444 8.23072,-1.06816 16.52074,-1.6174 24.74911,-2.69294 4.58282,-0.72587 9.03557,-2.09499 13.38877,-3.66787 2.30767,-0.37546 4.7785,-0.81011 6.56444,-2.44773 4.75467,-2.98234 10.57023,-2.88737 15.74138,-4.91379 3.40188,-1.43056 6.68755,-3.11934 10.03048,-4.68011 6.71855,-3.22231 13.07313,-7.1928 18.89676,-11.84335 2.5256,-1.96446 4.90789,-4.1073 7.36752,-6.14777 4.80581,-3.42389 9.97377,-6.31768 14.63102,-9.95182 4.13564,0.99581 8.69372,-0.85591 11.15797,-4.28032 2.06835,-2.06589 3.62688,-4.67352 4.26537,-7.53867 0.27029,-0.63927 0.34483,-1.55685 1.16918,-1.6902 3.01308,-1.32662 5.08125,-4.07751 6.56906,-6.91791 4.58091,-7.41251 9.11976,-14.88194 12.87299,-22.75495 0.95211,-2.466 1.94458,-4.89898 3.58353,-7.03099 1.92642,-2.84442 3.17394,-6.06735 4.25123,-9.30928 1.4061,-3.96162 2.74121,-7.96901 4.65234,-11.72414 1.27274,-3.06612 1.37365,-6.42649 1.83575,-9.66956 0.24958,-1.40628 0.7195,-3.00409 1.54687,-4.27929 1.34391,-2.7651 1.44796,-5.90929 1.42969,-8.92579 3.29689,-2.94587 4.09521,-8.29363 1.77735,-12.06445 1.08655,-2.30557 1.27907,-4.97525 0.67547,-7.43904 -0.4607,-4.01281 -0.27663,-8.17452 0.0359,-12.22881 0.52925,-4.75148 1.3097,-9.64263 0.0859,-14.35651 -0.75233,-3.57605 -1.08896,-7.15198 -1.35514,-10.78102 -1.09128,-10.43041 -4.05825,-20.53094 -7.06346,-30.53942 -0.6557,-2.42561 -0.86551,-5.01394 -2.15466,-7.22512 -1.20643,-2.22931 -2.52313,-4.39961 -3.82694,-6.57305 -0.94236,-1.41187 -1.61158,-2.97302 -2.08636,-4.597205 -1.02796,-3.078561 -2.86264,-5.773406 -4.39872,-8.603929 -0.84008,-1.538043 -1.47002,-3.137637 -1.94748,-4.777203 -0.83518,-2.245157 -2.23675,-4.275131 -4.02313,-5.86893 0.19244,-2.56926 -1.20236,-4.851512 -2.40219,-7.004508 -1.51879,-2.804173 -3.46166,-5.507456 -6.20523,-7.224008 -1.68632,-2.195087 -3.44248,-4.333358 -5.34377,-6.346767 -2.53276,-2.765489 -5.3413,-5.258716 -7.96782,-7.92526 -1.95068,-2.53058 -3.46751,-5.453315 -6.00111,-7.485095 -6.27641,-5.806812 -12.72527,-11.459246 -19.66413,-16.465119 -3.79341,-2.332937 -7.96957,-3.94281 -11.85632,-6.106271 -6.41773,-3.386456 -12.46274,-7.452623 -19.01058,-10.593363 -2.17583,-0.9670404 -4.48931,-1.6990825 -6.87891,-1.8417969 -2.43415,-2.3079049 -5.96304,-2.8427667 -9.19209,-2.7328095 -3.78765,-0.092629 -7.41004,-1.0662998 -10.83134,-2.6832061 -2.45033,-0.9888424 -5.11798,-1.0923718 -7.71692,-1.2757688 -2.95083,-0.3950351 -5.86017,-1.0832854 -8.83867,-1.26850608 -2.3859,-0.2188383 -4.62798,-1.1402343 -7.05574,-0.9713501 z m 3.0332,26.02343748 c 2.79505,0.313386 5.62497,0.816748 8.46408,0.671389 3.95372,0.566123 7.22961,3.482565 11.30165,3.556868 1.78782,0.234409 3.63278,-0.486392 5.37685,0.07838 2.54395,2.17575 6.10429,2.287269 8.97334,3.849785 6.48512,2.889315 12.83155,6.162732 19.62552,8.287421 2.12659,1.155843 3.88892,2.889623 6.09674,3.916534 2.94659,1.609549 5.98443,2.975059 8.75381,4.815429 1.48597,0.825453 2.8476,1.924371 3.74881,3.381892 4.66924,5.849618 11.65647,9.394353 15.96763,15.571628 3.08161,3.720684 6.67088,6.968812 9.91423,10.542545 0.98283,3.879423 4.05896,6.657021 6.13385,9.943189 2.10378,2.899823 3.95081,5.970713 5.69232,9.097827 1.93306,3.269141 4.00803,6.387261 5.60687,9.714071 1.64565,3.59345 2.89851,7.35011 4.35672,11.02044 1.03341,2.72278 2.10354,5.48861 2.26945,8.42764 0.26992,2.96717 0.14868,5.98517 0.91456,8.88907 0.61187,2.67473 1.27276,5.34768 1.61208,8.07234 0.59202,2.20432 1.67969,4.32951 1.58855,6.66601 0.35093,5.31987 0.42672,10.74337 1.36585,16.03753 0.40816,2.7274 1.04538,5.45483 1.02192,8.22383 -0.24605,2.44908 -1.51582,4.70243 -1.44419,7.19979 -0.0628,2.59858 0.29039,5.30276 -0.72776,7.77271 -0.6099,2.22235 -0.1503,4.5437 0.31504,6.74078 0.11302,3.02076 -1.33441,5.78552 -1.95504,8.68304 -0.76502,3.01565 -1.07144,6.17633 -0.65061,9.26955 -2.85707,3.67297 -3.80452,8.36136 -4.50196,12.85352 -0.33115,1.80721 -0.91421,3.55895 -1.72006,5.26633 -1.9948,4.82349 -3.25182,9.92445 -5.30795,14.72002 -1.68082,2.83189 -4.18505,5.03524 -6.63731,7.18039 -1.21554,1.04244 -2.15692,2.33921 -3.02999,3.66724 -1.21515,1.47391 -2.61924,3.01231 -2.77244,5.01388 -0.42414,0.73675 -1.21812,1.1961 -1.63772,1.95683 -1.04939,1.53923 -1.61438,3.39447 -1.64648,5.2539 -2.66015,2.25384 -4.51436,5.31502 -7.27005,7.46626 -2.88203,2.39253 -6.01767,4.46078 -8.85313,6.91226 -2.9602,2.41605 -6.19551,4.63609 -9.56896,6.50823 -7.43936,4.60666 -13.85983,10.70259 -21.48185,15.02968 -4.22918,2.26492 -8.72994,3.97532 -13.32297,5.34247 -3.0599,1.00941 -6.24245,1.74051 -9.13794,3.1888 -1.01179,0.46204 -1.77875,1.28808 -2.68151,1.90191 -3.89018,0.5701 -7.5121,2.25735 -11.31093,3.22685 -4.52677,1.31488 -9.17304,2.11091 -13.87699,2.09573 -4.56703,0.24738 -9.10733,0.98947 -13.69166,0.87694 -7.21071,0.0717 -14.40831,0.72602 -21.62066,0.63689 -4.95207,-0.1481 -9.72983,-1.56047 -14.56704,-2.47958 -4.96787,-1.04594 -9.96804,-1.93125 -14.94485,-2.9301 -3.55255,-0.79174 -6.70674,-2.67467 -9.97098,-4.20312 -6.70676,-3.35015 -13.35792,-6.81098 -20.130414,-10.0287 -3.165376,-1.52666 -5.847985,-3.82998 -8.736589,-5.79228 -1.774317,-1.26623 -3.65275,-2.40422 -5.558139,-3.44024 -1.475607,-1.68013 -2.791326,-3.55549 -4.696232,-4.79173 -3.553668,-2.75816 -7.398947,-5.16229 -10.628807,-8.31963 -5.733152,-5.07354 -11.162875,-10.40921 -16.304086,-16.08305 -3.443758,-4.25577 -6.53054,-8.79711 -9.360808,-13.47917 -2.192563,-4.05887 -3.365278,-8.71581 -5.641294,-12.78946 -0.804379,-1.22734 -2.308041,-2.20208 -2.218759,-3.83298 -0.220794,-1.98007 -1.122518,-3.88654 -2.550356,-5.2816 0.107347,-1.96092 0.07429,-4.03364 -0.94923,-5.77774 -0.551855,-1.16007 -1.65676,-2.09549 -1.659549,-3.46038 -0.223135,-2.20348 -0.446146,-4.48916 -1.601755,-6.43576 -0.607972,-0.75646 -0.209069,-1.72617 -0.252357,-2.60737 0.09846,-2.20239 -0.130278,-4.45966 -1.058863,-6.4808 -0.963522,-3.34141 -1.289101,-6.83355 -2.337478,-10.15425 -0.596718,-2.23176 -0.703627,-4.55017 -0.77944,-6.84347 -0.258729,-1.7828 -1.519897,-3.46908 -0.912175,-5.31839 0.537519,-2.26735 1.614713,-4.48363 1.441472,-6.89801 -0.02846,-1.53794 -0.233083,-3.11416 0.279198,-4.60088 0.442333,-1.86383 0.154464,-3.79511 0.295021,-5.67686 0.447316,-1.38162 1.238821,-2.62652 1.659213,-4.02343 0.608983,-1.62246 0.874978,-3.37866 0.790213,-5.09621 1.019361,-2.84844 2.121609,-5.73867 2.218001,-8.79921 0.381371,-2.65996 1.846843,-4.87115 2.595589,-7.44097 0.353461,-1.42443 1.095074,-2.68332 1.846543,-3.92568 1.227248,-2.16945 1.841678,-4.60177 2.736165,-6.91233 1.209658,-3.32988 2.26543,-6.73514 3.809153,-9.92904 1.886986,-3.54557 4.14901,-6.93666 6.238124,-10.40954 1.418054,-2.26023 2.854009,-4.51246 4.433171,-6.66477 3.903005,0.28884 7.668103,-2.59424 8.650145,-6.339357 1.326722,-3.069347 3.541031,-5.54135 5.717622,-8.111274 2.625493,-2.970699 6.035057,-5.147909 8.570168,-8.200887 1.222968,-1.48887 2.123559,-3.225898 2.915185,-4.954748 2.020138,-1.73208 4.196678,-3.376137 5.676376,-5.624592 2.057604,-1.826399 4.741591,-2.753321 6.804264,-4.576315 3.242411,-2.200023 6.622133,-4.317427 9.233607,-7.283813 2.176191,-1.777779 4.349851,-3.577232 6.356461,-5.537919 1.35851,-0.695801 2.94648,-0.985384 4.08095,-2.076959 2.55307,-1.925495 5.15137,-3.811515 8.01427,-5.25594 5.18984,-2.773476 10.55241,-5.39348 15.73193,-8.247158 2.6657,-1.444421 5.36318,-2.905915 8.3277,-3.637368 4.6442,-1.296656 9.48018,-2.173757 13.74947,-4.523473 2.83248,-1.343586 5.7842,-2.413154 8.64256,-3.696602 0.22645,-0.353982 0.75163,0.117605 1.10106,0.05956 4.8572,1.006948 9.99603,1.568821 14.82937,0.13163 2.50616,-0.416139 5.06447,-0.07953 7.57926,-0.431335 2.08818,-0.169296 4.18853,-0.60467 6.28523,-0.314546 z"></path>
<path id="SvgjsPath1000" style="clip-rule:evenodd;fill:#000000;fill-opacity:1;fill-rule:evenodd;stroke:none;stroke-width:1.17475" class="st0" d="m 175.8457,62.037109 c -1.54643,0.09781 -3.48104,0.475057 -4.09113,2.116841 -0.58858,1.997191 -0.20574,4.107287 -0.31902,6.155816 0,15.86875 0,31.737504 0,47.606254 2.36914,0 4.73828,0 7.10742,0 -0.003,-17.28413 0.0197,-34.569165 -0.0325,-51.85267 -0.0186,-1.18522 0.29186,-2.660818 -0.8171,-3.475459 -0.51539,-0.413432 -1.19356,-0.591085 -1.84766,-0.550782 z m -9.54492,0.03125 c -2.21088,-0.01809 -4.59644,1.378613 -5.0039,3.679688 -0.57456,2.749367 -0.52519,5.581299 -0.57978,8.376528 0.0202,3.143736 -0.0944,6.293471 -0.59564,9.401074 -1.00486,7.802584 -1.62617,15.723655 -0.72279,23.568851 0.20643,3.52086 -0.0317,7.05731 -0.23861,10.56687 -0.69046,1.92897 -1.28795,3.92382 -1.24203,5.99533 -0.0193,3.96984 1.23353,7.78493 1.94935,11.65431 0.33566,1.30335 0.41992,2.71298 1.04278,3.91751 0.79169,1.11701 2.00646,1.82491 2.95015,2.80113 1.76122,1.61715 3.65931,3.1436 5.07719,5.08363 1.24424,2.31186 0.56615,5.0225 0.46116,7.50596 -0.36146,3.64933 -0.36573,7.31595 -0.33018,10.97919 0.0576,9.61155 0.14426,19.23284 -0.47457,28.83037 -0.42302,7.87087 -1.10867,15.77065 -1.122,23.67152 0.11223,8.01977 0.10977,16.04074 0.071,24.06086 -0.012,0.91553 0.0975,1.92893 -0.49215,2.68843 -1.59505,2.65266 -1.35915,5.87584 -1.35494,8.84922 -0.2,4.59928 0.1098,9.1983 0.53963,13.77604 0.34989,6.34779 -0.35736,12.90461 1.75311,19.02485 0.89184,2.87017 2.30718,5.81118 4.9596,7.43779 2.02317,1.50867 4.41748,2.94793 7.04847,2.63505 2.66974,-0.081 5.45233,-1.20731 6.93694,-3.52178 0.84939,-0.70448 2.00789,-0.97209 2.73829,-1.84766 1.63802,-1.59234 1.9616,-4.08638 1.44866,-6.22731 -0.37686,-3.45556 0.74059,-6.88149 0.22133,-10.36702 -0.0603,-0.91461 -0.48713,-1.7691 -0.59045,-2.6548 0.28183,-11.10026 0.55358,-22.20121 0.61899,-33.30527 0.0583,-6.9236 0.19795,-13.84967 0.17091,-20.77205 -0.25798,-2.84299 -0.39366,-5.6961 -0.27762,-8.55 0.0801,-5.6651 0.46249,-11.34986 -0.14882,-16.99928 -0.44602,-4.56242 -0.22563,-9.18211 -0.29886,-13.7887 -0.0593,-7.53602 -0.0628,-15.07808 -0.46684,-22.60531 -0.0564,-2.0045 -0.37403,-4.00741 -0.29233,-6.01063 0.0934,-1.12155 0.92502,-1.96693 1.88786,-2.44912 1.69707,-0.98641 3.32942,-2.16731 4.42209,-3.83228 2.44133,-3.4915 2.96688,-7.85048 3.47566,-11.96951 0.30701,-2.77238 0.069,-5.55966 -0.20635,-8.32187 -0.30197,-5.85351 0.39276,-11.7074 0.0965,-17.5623 -0.10132,-6.958106 -0.38382,-13.916223 -0.35939,-20.874474 0.21946,-3.498954 0.47216,-7.039771 0.14353,-10.524604 -0.13675,-2.394345 -0.50967,-4.769512 -0.57676,-7.167948 -0.0487,-1.693636 -1.18343,-3.244562 -2.78461,-3.798473 -1.49049,-0.54131 -3.09248,-0.699627 -4.63973,-0.978812 -0.74697,-0.03964 -1.05674,0.762148 -0.92697,1.385344 -0.0851,2.825966 -0.57301,5.62584 -0.70252,8.444707 0.085,8.076912 0.42761,16.149976 0.38066,24.22851 0.0573,11.81478 0.0996,23.63433 -0.075,35.44619 -0.40079,2.14394 -2.30867,3.48364 -3.68542,5.00713 -1.92009,1.98592 -4.04522,3.79632 -5.76024,5.96664 -0.96743,1.63564 -0.55343,3.60967 -0.66271,5.41288 0.0331,5.25735 0.11124,10.51777 -0.17958,15.77001 -0.36662,8.72087 -0.52938,17.45607 -0.14241,26.17938 0.50017,14.21027 1.22976,28.4121 1.59897,42.62705 0.28128,9.83041 0.5382,19.66428 0.52105,29.49931 0.0457,3.28393 -0.37013,6.48013 -0.35407,9.76137 -0.009,1.43382 0.39573,2.8094 0.82297,4.16001 0.7407,3.02322 -0.17182,6.27706 -2.07989,8.68999 -0.26041,0.30614 -0.49741,0.78443 -0.85636,0.9332 -1.29083,-0.94959 -2.51143,-2.23003 -2.7185,-3.89597 -0.0933,-2.16353 0.005,-4.34101 -0.0248,-6.50988 -0.002,-7.50391 0.24928,-15.00419 0.60376,-22.49879 0.18237,-4.19864 0.0708,-8.40008 -0.0826,-12.59713 -0.13305,-5.12941 0.75208,-10.20181 1.28439,-15.28625 0.58655,-4.93177 0.9745,-9.89028 0.94202,-14.85986 0.31907,-16.99109 -0.0471,-33.98558 0.12315,-50.97739 0.0552,-4.18065 0.28051,-8.3887 -0.23878,-12.54856 -0.42142,-2.58715 -2.0003,-5.0476 -4.4414,-6.13867 -1.90831,-1.03125 -2.88187,-3.06872 -4.21452,-4.68188 -1.03058,-1.2097 -1.79335,-2.70188 -1.77499,-4.3236 -0.41925,-3.91953 -0.45541,-7.87313 -0.40698,-11.80898 0.33774,-1.12287 1.2053,-2.11887 1.06209,-3.36178 0.44812,-6.92443 0.48203,-13.86515 0.43745,-20.801106 0.0106,-9.574593 -0.0174,-19.150987 -0.0367,-28.724374 0.0666,-1.472348 0.24839,-3.363188 -1.13078,-4.321719 -0.72533,-0.489601 -1.63983,-0.608303 -2.4961,-0.550782 z m 17.50195,-0.0039 c -1.54224,0.05594 -2.6085,1.637918 -2.45997,3.101027 -0.0891,5.967973 -0.0108,11.937692 -0.0389,17.906395 0.0122,10.848807 -0.0328,21.699895 0.038,32.547265 0.0776,0.72507 0.0977,1.45418 0.14245,2.18164 2.19066,0.20086 4.38148,0.39998 6.57226,0.59961 -0.01,-17.86053 0.0288,-35.722254 -0.0273,-53.582031 -0.11411,-1.542155 -1.57058,-2.70291 -3.07809,-2.697728 -0.38006,-0.06244 -0.76456,-0.06379 -1.14848,-0.05618 z m 57.58204,2.648438 c -3.15707,0.07006 -6.0974,2.027582 -7.59005,4.777428 -1.81395,2.820984 -3.23547,5.87412 -5.0955,8.667884 -1.23522,2.01369 -2.0292,4.256121 -2.52427,6.557874 -2.20271,8.631837 -3.68015,17.428093 -5.08793,26.218523 -0.74019,4.96254 -0.81333,9.98564 -0.89283,14.9927 -0.29107,14.39065 -0.25239,28.78608 -0.31425,43.17832 0.045,1.86461 0.82751,3.72097 2.29847,4.90272 2.05498,2.16408 4.43796,3.9775 6.68487,5.92525 1.11597,1.34251 0.48934,3.15379 0.38477,4.70703 -0.5583,4.79169 -0.77897,9.61379 -0.81384,14.43622 -0.20609,10.2847 -0.19714,20.59094 -1.22374,30.83728 -0.59751,6.6053 -1.14953,13.22201 -1.16613,19.85896 -0.16566,9.10291 -0.0115,18.20737 -0.001,27.3109 -0.78274,0.58261 -0.20104,1.61092 -0.33281,2.41008 0.0113,2.78581 0.43477,5.60314 1.64219,8.13698 0.949,2.2562 2.15882,4.55306 4.27995,5.91372 2.07467,1.43401 4.51161,2.23648 6.90438,2.95048 1.95274,0.21936 3.89496,-0.46082 5.64068,-1.27127 3.58038,-1.8144 6.52643,-5.20204 7.2367,-9.21616 0.26457,-2.24945 0.12238,-4.5218 0.23022,-6.78104 0.20378,-9.62962 0.19376,-19.26231 0.0262,-28.89229 -0.1489,-14.09607 0.009,-28.19529 -0.18418,-42.29009 -0.25158,-3.60925 -1.17262,-7.14547 -1.71274,-10.67384 -0.6918,-3.37392 -1.29957,-6.79115 -1.21254,-10.24931 -0.14942,-8.38752 0.20832,-16.77677 -0.0443,-25.16367 -0.2404,-16.0822 -0.16588,-32.17091 0.28993,-48.24859 0.10507,-3.21645 0.41332,-6.44262 0.93264,-9.63305 0.56283,-3.51487 0.98814,-7.068726 1.11751,-10.604845 0.32975,-5.78113 0.47683,-11.581255 0.50955,-17.368853 -0.25461,-1.902821 -1.10105,-3.674479 -1.98389,-5.35398 -1.07325,-1.762477 -1.92733,-3.826003 -3.80795,-4.895913 -1.24212,-0.784353 -2.72153,-1.184663 -4.18973,-1.139448 z m -124.33789,0.257812 c -2.96097,0.0663 -5.37319,2.003989 -7.8334,3.408366 -1.6049,0.99726 -3.25148,1.965936 -4.72242,3.147596 -1.1338,1.322092 -1.82107,2.951159 -2.81401,4.374324 -2.294025,3.761673 -4.166687,7.768624 -5.840369,11.839256 -1.111348,2.739758 -1.727172,5.650933 -1.976615,8.590701 -0.468102,4.615034 -0.566347,9.259784 -0.69903,13.893134 0.112741,1.79001 -0.106704,3.56879 -0.303614,5.34233 -0.107868,2.81976 0.461642,5.60632 0.820145,8.39068 0.419768,2.71402 0.58589,5.64688 2.261886,7.94525 1.12074,1.7032 1.330822,3.82508 2.418057,5.5531 0.433581,0.83547 1.155667,1.50049 1.79437,2.13502 0.38867,1.21426 1.52073,1.96042 2.20435,2.99713 1.34453,1.67783 2.90874,3.16645 4.59333,4.49469 1.06484,1.06061 0.59998,2.64794 0.69849,3.97944 -0.022,5.92481 0.0135,11.84985 0.11502,17.77344 -0.0233,17.07108 0.0269,34.14369 -0.23307,51.21318 -0.16572,7.36814 -0.84584,14.66684 -1.61158,21.97683 -0.31151,2.68685 -0.35763,5.39723 -0.094,8.09029 0.35773,4.39903 0.22878,8.84704 0.29607,13.2736 -0.0347,3.63066 0.14926,7.29794 -0.59141,10.8773 -0.31325,1.69166 -0.61278,3.38395 -0.87084,5.0852 0.67937,-0.38497 0.84143,-0.033 0.76019,0.64201 -0.0106,1.87035 -0.0881,3.80137 0.66632,5.55995 0.90766,2.43203 2.40345,4.60341 3.97104,6.64869 1.69953,1.75822 3.90061,2.97968 6.16848,3.84335 2.78508,0.906 5.94166,0.082 8.09163,-1.86132 1.85218,-1.57319 3.42836,-3.47634 4.72036,-5.52981 1.39474,-2.40131 1.74054,-5.32002 1.11125,-8.00977 -0.54107,-3.802 -0.0976,-7.89155 -0.13502,-11.82424 -0.17322,-13.21831 0.68555,-26.51568 -1.15728,-39.65637 -2.58586,-20.41443 -1.31578,-41.10527 -1.73823,-61.65809 -0.10079,-5.821 -0.435,-11.63986 -0.3435,-17.46299 0.5689,-2.36701 2.77697,-3.75666 4.60982,-5.11288 2.30545,-1.59333 4.55035,-3.49013 5.73039,-6.09707 1.8453,-3.43531 4.01805,-6.71413 5.50299,-10.32997 0.78793,-2.02081 1.48428,-4.16564 1.19772,-6.36554 -0.22943,-6.47925 0.64766,-13.03422 -0.62881,-19.44806 0.30647,-3.407975 0.0729,-6.957879 -1.42969,-10.083981 -0.92415,-2.04619 -1.19779,-4.297789 -1.87725,-6.4261 -1.20957,-4.337575 -2.97608,-8.681947 -6.19557,-11.931804 -2.31506,-2.453556 -4.34297,-5.276772 -7.29158,-7.031747 -2.37795,-1.519068 -5.23361,-2.000561 -7.99693,-2.243162 -0.44963,-0.02181 -0.89791,-0.02213 -1.34765,-0.002 z m -0.0703,8.396485 c 1.67428,0.08743 3.42133,0.249897 5.11356,0.664894 0.90149,0.288563 1.30298,1.251734 1.96504,1.861238 1.77182,2.050808 3.47978,4.155421 5.20265,6.247305 -0.10277,3.168718 2.0085,5.746009 3.072,8.579455 0.48015,1.380443 0.25911,2.890025 0.80354,4.259366 0.62221,2.157407 1.82228,4.220716 1.68074,6.531444 0.0496,2.99042 -0.0384,5.98097 -0.0406,8.97153 0.62668,-0.3609 0.61938,0.0546 0.57139,0.56367 -0.0232,3.62461 0.0758,7.24814 -0.65707,10.74109 -1.16873,4.73181 -2.69447,9.60166 -6.01204,13.30332 -2.4173,2.59864 -5.34067,4.65219 -8.30989,6.56388 -1.91718,1.47542 -2.37707,4.07012 -2.27099,6.35301 -0.0884,8.09696 -0.19315,16.19731 -0.0117,24.29326 0.6123,16.04348 0.36905,32.10378 0.81011,48.15103 0.336,6.43199 0.91597,12.81662 1.05749,19.25461 0.41565,11.6376 0.94689,23.27332 1.14205,34.91715 -0.028,2.60154 0.10632,5.21091 -0.0137,7.80721 -0.26016,1.46803 -1.14697,2.89801 -2.44437,3.64357 -1.18786,0.25418 -2.67871,-0.24493 -3.2105,-1.37944 -0.63801,-2.15672 -1.23865,-4.3448 -1.51802,-6.57759 0.19909,-1.27759 1.16373,-2.30342 1.29734,-3.61083 0.70856,-3.37503 0.17887,-6.84033 0.38964,-10.25526 0.16807,-6.43691 0.28255,-12.87563 0.18078,-19.31471 -0.0838,-9.56511 -0.0705,-19.13054 -0.0411,-28.69575 -0.0363,-10.33745 -0.37668,-20.67334 -0.21295,-31.01113 0.0747,-11.0542 0.26116,-22.10832 0.2621,-33.16259 -0.0659,-2.25048 0.0673,-4.50877 -0.0399,-6.75442 -0.35655,-2.34466 -2.25853,-3.98059 -4.01909,-5.36351 -3.028,-2.58758 -6.00327,-5.57782 -7.23532,-9.46518 -0.49887,-0.97739 -1.32987,-1.75383 -1.73778,-2.7924 -1.96633,-4.3379 -1.49502,-9.28114 -3.059631,-13.73815 -0.4625,-1.20796 0.181254,-2.47854 0.306031,-3.70038 0.6045,-4.14444 1.56572,-8.24815 1.76532,-12.444286 0.29495,-3.634795 1.31446,-7.334807 2.85632,-10.76611 1.7368,-3.722848 3.83088,-7.318868 6.48944,-10.461114 1.12144,-1.181983 2.30843,-2.3755 3.71397,-3.19811 0.71094,-0.15281 1.43779,-0.04727 2.15511,-0.01607 z m 124.61133,0.208984 c 0.34709,0.665487 0.75814,1.38002 0.50784,2.148064 -0.21984,3.492863 -0.10022,7.000384 -0.1462,10.49957 -0.0288,12.368919 -0.33017,24.735344 -0.59981,37.100814 -0.16204,7.29042 -0.48754,14.57863 -0.39068,21.87262 0.0882,10.62893 0.26285,21.25714 0.27615,31.88671 0.071,9.21116 -0.0124,18.4258 0.27325,27.63376 0.22625,6.72489 1.14735,13.40126 1.25622,20.11365 0.23683,16.57309 0.0484,33.15514 0.50682,49.72333 0.30696,1.40227 1.03965,2.72549 0.88672,4.20508 -0.0821,2.29861 -0.82963,4.52512 -1.61386,6.65905 -0.70183,1.02255 -1.59975,1.95496 -2.63223,2.63587 -1.2171,0.46159 -2.50026,-0.23922 -3.46216,-0.95432 -0.95422,-0.74756 -1.08904,-1.99847 -1.55737,-3.03396 -0.69625,-2.31727 -0.97351,-4.75422 -1.05101,-7.16754 -0.0116,-2.37556 0.31728,-4.73619 0.39235,-7.11022 0.47276,-8.88907 0.94102,-17.77982 1.25204,-26.67615 0.19184,-6.34458 -0.65084,-12.73827 0.41586,-19.03985 0.59315,-4.02015 0.96831,-8.08049 0.81745,-12.14794 -0.13641,-10.8755 -0.17748,-21.75562 0.16745,-32.62783 0.007,-1.87804 -1.02509,-3.67223 -2.61505,-4.65762 -2.11779,-1.6818 -4.091,-3.56974 -5.82811,-5.63691 -0.73342,-1.63555 -0.25631,-3.4721 -0.40329,-5.19922 0.0111,-14.39328 -0.18529,-28.78935 0.12847,-43.18046 0.11653,-3.0987 0.12721,-6.21141 0.36694,-9.29933 0.44101,-1.08362 1.37802,-1.90497 1.70189,-3.05589 0.8165,-2.01964 0.40387,-4.21944 0.40272,-6.32433 0.19903,-4.668513 2.08251,-8.984161 2.80127,-13.57158 0.87558,-3.747403 2.50455,-7.242467 4.11047,-10.701668 0.69705,-1.277409 1.39276,-2.556485 2.52328,-3.552499 0.45584,-0.27962 0.95914,-0.470893 1.45203,-0.674014 l 0.0415,0.09099 z"></path></svg><style>@media (prefers-color-scheme: light) { :root { filter: none; } }
@media (prefers-color-scheme: dark) { :root { filter: none; } }
</style></svg>